<svg xmlns="http://www.w3.org/2000/svg" data-source-file="/data/user/0/com.praveen.gitmdannotations_tablet/app_flutter/repos/alvin4frnds/GitMdAnnotations/jobs/pending/spec-spec-001-delete-job-from-tablet/02-spec.md" data-source-sha="1e5f651eeb72828511db187bdd92d211ce04e043">
  <g id="stroke-group-hhu4fdqzu6-0" data-anchor-line="103" data-timestamp="2026-04-22T06:37:12Z">
    <path d="M 367.0611790645313,3313.925084750573 L 361.3236627527664,3311.950118770469 L 359.4607619019682,3311.4658373188263 L 357.6349735290571,3311.2424347558594 L 355.66037139677553,3311.2424347558594 L 353.42489037581765,3311.354136037343 L 351.1148205512634,3311.6896037296156 L 348.7305257709353,3312.136408855549 L 346.4950447499775,3312.6581666329016 L 344.4083774883901,3313.5150282547042 L 342.47088783399556,3314.4839550058127 L 340.57087450531026,3315.303340301906 L 338.55879604731933,3316.197678249418 L 336.4353801556674,3317.27830628201 L 334.1624228090002,3318.396046792489 L 331.8898293101553,3319.5137873029676 L 329.69146076708455,3320.6686402913338 L 327.716858634803,3321.8234932796995 L 326.07736034697166,3322.9787101158877 L 324.6245159920426,3324.171039429963 L 323.35759787437075,3325.512182503409 L 322.2773336896013,3327.0025031840473 L 321.3829957420892,3328.753702753362 L 320.07896514653044,3332.8146082994085 L 319.81808625785425,3334.901275560996 L 319.81808625785425,3337.0621677783574 L 320.07896514653044,3339.1113587142354 L 320.6749478796569,3341.04884836863 L 321.45758454568556,3343.0234505009116 L 322.5007362525681,3345.184342718273 L 325.2579750508784,3349.692781085898 L 327.1951008574505,3351.62990689247 L 329.61687196348817,3353.381106461785 L 332.41122323968534,3354.908903468133 L 335.3547521230754,3356.0637564564986 L 338.2236922028691,3356.846029274705 L 341.1297447605498,3357.218609444865 L 344.4083774883901,3357.256085770574 L 348.4696468822591,3356.9206180783012 L 352.86602012057824,3356.4363366266584 L 356.92728951444724,3355.6165874827425 L 360.9136062568973,3354.498846972264 L 365.3474558209259,3353.0831150952217 L 370.00470794792136,3351.62990689247 L 374.14020229756443,3349.953296126752 L 377.7543027176773,3348.0532827980664 L 381.1821130527104,3346.115793143672 L 384.6099233877435,3344.1783034892774 L 387.8139673119874,3342.3528789641887 L 393.4026698643819,3338.4407871775124 L 395.60103840745273,3336.1307173529585 L 397.5010517361378,3333.5972449654373 L 400.6308707046078,3328.6420014718788 L 402.04660258164995,3326.704511817484 L 403.2014555700158,3325.139602333249 L 404.0586810396409,3323.6492816526106 L 404.4683736876875,3322.345251057052 L 404.4312612098005,3321.0783329393803 L 403.9095034324481,3319.8863674731274 L 403.2014555700158,3318.8057394405355 L 402.2700051446167,3317.7251114079436 L 401.1897409598472,3317.0174273933335 L 399.9974116457719,3316.681959701061 L 398.73049352810017,3316.5331459416907 L 397.35223797676747,3316.7194360267704 L 395.82444097041946,3317.0545398712206 L 394.07324140110484,3317.4271200413805 L 392.0615267909362,3317.9114014930233 L 389.75145696638197,3318.544860551859 L 385.5413738131426,3319.5880122587414 L 383.6784729623445,3320.1097700360942 L 382.2627410853023,3320.594051487737 L 380.95871048974357,3321.041220461493 L 379.9897837386351,3321.4509131095397 L 379.24462339831587,3321.749268323925 L 378.98374450963956,3321.8234932796995 L 378.8349307502692,3321.860969605409 L 378.7232294687858,3321.898082083296 L 378.6486406651894,3321.898082083296 L 378.6486406651894,3321.898082083296" stroke="#DC2626" stroke-width="2" opacity="0.9"/>
  </g>
  <g id="stroke-group-hhu4fdqzu6-1" data-anchor-line="104" data-timestamp="2026-04-22T06:37:12Z">
    <path d="M 396.6813025922221,3314.297664920733 L 396.6813025922221,3314.297664920733 L 396.6813025922221,3314.297664920733 L 396.6813025922221,3314.297664920733 L 400.1091129272553,3312.5089890257086 L 403.49981078440146,3310.7952657821033 L 406.7409671865323,3309.230356297868 L 409.5353184627296,3307.963802028019 L 411.6219857243169,3307.2186416877 L 412.9631287977627,3306.9202864733143 L 414.0437568303545,3306.733996388234 L 414.9752072557536,3306.5477063031544 L 415.6828912703635,3306.436005021671 L 416.16753656982894,3306.3614162180747 L 416.688930499359,3306.2871912623004 L 416.8752205844388,3306.2497149365913 L 417.0243981916316,3306.212602458704 L 417.17321195100203,3306.1751261329946 L 417.2852770803079,3306.138013655108 L 417.3223895581949,3306.1009011772207 L 417.2852770803079,3306.1009011772207 L 416.8006317808424,3306.138013655108 L 416.3163503291993,3306.1751261329946 L 415.4966011852837,3306.212602458704 L 414.2300469154344,3306.1751261329946 L 413.7457654637914,3306.138013655108 L 413.4102977715187,3306.1009011772207 L 413.11230640495546,3306.0263123736245 L 412.8514275162793,3305.951723570028 L 412.5905486276031,3305.840022288545 L 412.36714606463613,3305.7283210070614 L 412.18085597955644,3305.5791433998684 L 412.03167837236356,3305.4299657926754 L 411.9570895687672,3305.2811520333053 L 411.9570895687672,3305.020273144629 L 412.069154698073,3304.7222817780657 L 412.5905486276031,3304.2005240007134 L 413.37318529363176,3303.71624254907 L 414.5280382819976,3303.1944847717177 L 416.54011673998855,3302.5613895607044 L 417.35950203608184,3302.4493244313985 L 418.10466237640117,3302.4122119535114 L 418.7010089573499,3302.4122119535114 L 419.3715804940729,3302.5985020385915 L 419.9304507493123,3302.8964934051546 L 420.4522085266648,3303.418251182507 L 420.97360245619484,3305.169450751822 L 420.750199893228,3306.4734813473806 L 420.1913296379885,3308.187204590986 L 419.44616929766926,3310.1992830489767 L 419.44616929766926,3310.1992830489767" stroke="#DC2626" stroke-width="2" opacity="0.9"/>
  </g>
  <g id="stroke-group-hhu4fdqzu6-2" data-anchor-line="103" data-timestamp="2026-04-22T06:37:14Z">
    <path d="M 442.35984976248676,3305.802545962835 L 442.35984976248676,3305.802545962835 L 444.2227506132848,3304.684805452356 L 446.1973527455664,3303.641653745474 L 448.0973660742517,3302.486800757108 L 451.07800743552866,3300.5493111027135 L 452.0840466645242,3299.804150762394 L 452.8292070048435,3299.4315705922345 L 453.4626660636793,3299.096102899962 L 453.7235449523555,3298.909812814882 L 453.9098350374353,3298.8355878591083 L 454.05864879680576,3298.7609990555115 L 454.31952768548194,3298.649297774028 L 454.39411648907844,3298.649297774028 L 454.43122896696536,3298.6864102519153 L 454.43122896696536,3298.7609990555115 L 454.39411648907844,3298.872700336995 L 454.282415207595,3299.0589904220747 L 453.87235871172595,3299.5061593958308 L 451.15259623912516,3301.7787528946756 L 449.9977432507592,3302.523913234995 L 447.68767342620504,3303.71624254907 L 446.53282043783906,3304.349701607906 L 445.34049112376374,3304.983160666742 L 442.99330882132256,3306.0634248515116 L 441.91268078873065,3306.6597714324603 L 440.9441178854446,3307.4420442506666 L 439.3417320755002,3309.1932438199815 L 438.6711605387774,3310.1992830489767 L 438.03770147994146,3311.3170235594557 L 436.8457360136887,3315.3408166276154 L 436.5848571250124,3316.7565485046575 L 436.547380799303,3319.4391984993713 L 436.6965584064958,3320.5194626841408 L 436.8828484915756,3321.3392118280562 L 437.5163075504115,3322.494428664245 L 438.03770147994146,3322.9412337901786 L 438.7828618202608,3323.3512902860475 L 441.1304079705244,3323.6121691747235 L 442.65784112904987,3323.425879089644 L 444.2973394168813,3323.015822593775 L 447.72478590409196,3321.898082083296 L 449.32717171403635,3321.0783329393803 L 450.668314787482,3320.2214713175777 L 452.9783846120363,3318.396046792489 L 454.0215363189187,3317.315418759897 L 455.1763893072846,3316.197678249418 L 456.4433074249564,3315.229115346132 L 457.4493466539519,3314.073898509944 L 457.4493466539519,3314.073898509944" stroke="#DC2626" stroke-width="2" opacity="0.9"/>
  </g>
  <g id="stroke-group-hhu4fdqzu6-3" data-anchor-line="104" data-timestamp="2026-04-22T06:37:14Z">
    <path d="M 444.18527428757545,3316.6073708974645 L 444.18527428757545,3316.6073708974645 L 444.18527428757545,3316.6073708974645 L 444.18527428757545,3316.6073708974645 L 446.0110626604867,3315.303340301906 L 447.7622622298014,3314.14848731354 L 449.2896953883269,3313.254149366028 L 450.89171735044886,3312.285586462742 L 452.34492555320037,3311.130733474376 L 452.34492555320037,3311.130733474376" stroke="#DC2626" stroke-width="2" opacity="0.9"/>
  </g>
  <g id="stroke-group-hhu4fdqzu6-4" data-anchor-line="103" data-timestamp="2026-04-22T06:37:14Z">
    <path d="M 457.11387896167923,3308.4106071539527 L 457.11387896167923,3308.4106071539527 L 457.11387896167923,3308.4106071539527 L 457.67274921691865,3309.900927834591 L 458.11991819067464,3311.0561446707798 L 458.49249836083436,3311.950118770469 L 458.8650785309941,3312.769867914385 L 459.1630698975572,3313.7387946654935 L 459.6848276749097,3316.346855856611 L 459.9082302378765,3317.166241152704 L 460.01993151935994,3317.61341012646 L 460.0945203229562,3317.79970021154 L 460.1319966486658,3317.9114014930233 L 460.1691091265527,3318.023466622329 L 460.20622160443963,3318.0605791002163 L 460.2436979301491,3318.0605791002163 L 460.28081040803613,3317.9859902966195 L 460.28081040803613,3317.874289015136 L 460.2436979301491,3317.3900075634933 L 460.0945203229562,3315.750509275662 L 460.01993151935994,3314.856535175972 L 459.83364143428,3313.77590714338 L 459.349359982637,3310.9069670635868 L 459.20054622326666,3309.7521140752206 L 459.0884810939608,3308.8206636498217 L 459.0513686160738,3307.591221857859 L 459.0884810939608,3306.9202864733143 L 459.20054622326666,3306.436005021671 L 459.6848276749097,3305.467442118385 L 460.0945203229562,3305.0948619482256 L 460.5045768188253,3304.833983059549 L 461.36143844062804,3304.4614028893893 L 461.84571989227106,3304.312225282197 L 462.47917895110686,3304.2005240007134 L 464.1557897168252,3304.1259351971166 L 465.08724014222435,3304.2380003264225 L 465.90698928614006,3304.4614028893893 L 467.024729796619,3304.983160666742 L 467.3973099667786,3305.2436757075957 L 467.7698901369382,3305.5791433998684 L 468.06788150350144,3305.951723570028 L 468.4029853479517,3306.3988925437843 L 468.5892754330315,3306.6968839103474 L 468.7384530402243,3306.9948752769105 L 469.0364444067875,3307.55374553215 L 469.18562201398026,3307.814624420826 L 469.3344357733507,3308.038026983793 L 469.63279098773637,3308.3734946760655 L 469.8190810728162,3308.485195957549 L 470.005371157896,3308.485195957549 L 470.1916612429758,3308.4480834796623 L 470.1916612429758,3308.4480834796623" stroke="#DC2626" stroke-width="2" opacity="0.9"/>
  </g>
  <g id="stroke-group-hhu4fdqzu6-5" data-anchor-line="103" data-timestamp="2026-04-22T06:37:14Z">
    <path d="M 471.42110303493814,3303.3436623789107 L 471.42110303493814,3303.3436623789107 L 471.42110303493814,3303.3436623789107 L 471.42110303493814,3303.3436623789107 L 471.42110303493814,3303.3436623789107 L 471.42110303493814,3303.3436623789107 L 471.42110303493814,3303.3436623789107 L 471.644505597905,3304.796870581662 L 471.90538448658117,3306.3243037401876 L 472.128787049548,3307.2928666434736 L 472.3896659382242,3308.4480834796623 L 472.6876573047874,3309.379533905061 L 473.0231249970601,3310.236395526864 L 473.50740644870314,3310.758153304216 L 473.87998661886274,3310.944443389296 L 474.3642680705058,3311.01866834507 L 474.9977271293417,3310.9069670635868 L 475.59407371029056,3310.534386893427 L 476.4509353320932,3309.7521140752206 L 477.23320815029945,3308.969477409192 L 478.05295729421505,3308.038026983793 L 479.2452866082905,3306.436005021671 L 479.6178667784501,3305.765433484948 L 479.76668053782043,3305.0948619482256 L 479.58039045274063,3304.08882271923 L 479.2823990861774,3303.6791300711834 L 478.723528830938,3303.0827834902343 L 477.1960956724124,3301.890454176159 L 476.41345900638385,3301.629939135305 L 475.78036379537025,3301.4436490502253 L 474.88602584785826,3301.2573589651456 L 474.32715559261885,3301.2944714430328 L 474.06627670394255,3301.369060246629 L 473.80539781526636,3301.4807615281125 L 473.4702939708161,3301.7041640910793 L 473.1723026042529,3301.9650429797557 L 472.79972243409327,3302.635614516478 L 472.79972243409327,3302.635614516478" stroke="#DC2626" stroke-width="2" opacity="0.9"/>
  </g>
  <g id="stroke-group-hhu4fdqzu6-6" data-anchor-line="103" data-timestamp="2026-04-22T06:37:15Z">
    <path d="M 493.55214683372697,3295.407777524075 L 493.55214683372697,3295.407777524075 L 493.55214683372697,3295.407777524075 L 493.55214683372697,3295.407777524075 L 493.55214683372697,3295.407777524075 L 493.55214683372697,3295.407777524075 L 493.55214683372697,3295.407777524075 L 493.55214683372697,3295.407777524075 L 493.36585674864705,3296.860621879004 L 493.32874427076,3297.904137433709 L 493.25415546716374,3298.8355878591083 L 493.32874427076,3299.617860677314 L 493.36585674864705,3300.288432214037 L 493.4779218779529,3300.77271366568 L 493.55214683372697,3301.0335925543563 L 493.70132444091973,3301.2573589651456 L 493.8505020481125,3301.4807615281125 L 494.18560589256276,3301.7416404167884 L 494.8561774292856,3302.039631783352 L 496.0113942654739,3302.337623149915 L 497.35253733891966,3302.3750994756247 L 498.544866652995,3302.2259218684317 L 499.5509058819905,3301.890454176159 L 500.4448799816802,3301.3315839209195 L 501.22751664770885,3300.43760982123 L 502.3452571581878,3298.6864102519153 L 502.643248524751,3297.717847348629 L 502.8295386098307,3296.860621879004 L 503.0158286949105,3295.407777524075 L 503.05294117279755,3294.774318465239 L 503.05294117279755,3294.1408594064033 L 502.9787162170236,3293.358586588197 L 502.9412398913141,3293.0977076995205 L 502.9041274134272,3292.8368288108445 L 502.8295386098307,3292.427136162798 L 502.7924261319438,3292.240846077718 L 502.7549498062343,3292.0916684705253 L 502.68036100263794,3291.905378385445 L 502.643248524751,3291.905378385445 L 502.643248524751,3292.017079666929 L 502.68036100263794,3292.2033697520087 L 502.86665108771774,3293.060595221634 L 503.1650063021034,3294.066270602807 L 503.1650063021034,3294.066270602807" stroke="#DC2626" stroke-width="2" opacity="0.9"/>
  </g>
  <g id="stroke-group-hhu4fdqzu6-7" data-anchor-line="103" data-timestamp="2026-04-22T06:37:16Z">
    <path d="M 512.0323415823382,3289.3347935200372 L 512.0323415823382,3289.3347935200372 L 512.0323415823382,3289.3347935200372 L 512.0323415823382,3289.3347935200372 L 512.0323415823382,3289.3347935200372 L 512.0323415823382,3289.3347935200372 L 512.0323415823382,3289.3347935200372 L 512.0323415823382,3289.3347935200372 L 512.0323415823382,3289.3347935200372 L 512.0323415823382,3289.3347935200372 L 512.0323415823382,3289.3347935200372 L 512.0323415823382,3289.3347935200372 L 512.0323415823382,3289.3347935200372 L 512.0323415823382,3289.3347935200372 L 512.0323415823382,3289.3347935200372 L 511.0634148312297,3291.0485167636425 L 510.2440295351364,3292.688015051474 L 509.6105704763005,3294.103746928516 L 508.4182411622253,3297.904137433709 L 508.38112868433825,3298.6864102519153 L 508.6045312473051,3299.245280507155 L 508.7162325287885,3299.3944581143473 L 508.8654101359813,3299.543271873718 L 509.2005139804314,3299.804150762394 L 509.4242803912207,3299.8787395659906 L 509.75938423567095,3299.8787395659906 L 511.4359950013893,3299.245280507155 L 512.5166230339812,3298.2767176038687 L 513.3734846557838,3297.3077908527603 L 514.4912251662628,3295.407777524075 L 514.752104054939,3294.625140858046 L 514.9383941400188,3293.84286803984 L 515.0129829436153,3293.395699066084 L 515.0875717472117,3292.911417614441 L 515.0875717472117,3292.3896598370884 L 515.0875717472117,3292.054555992638 L 515.0129829436153,3291.346508130206 L 514.9755066179058,3291.1231055672392 L 514.9383941400188,3290.936815482159 L 514.8638053364225,3290.675936593483 L 514.8266928585355,3290.638824115596 L 514.8266928585355,3290.675936593483 L 514.789216532826,3292.3154348813146 L 514.8638053364225,3293.879980517727 L 515.0500954215022,3295.444890001962 L 515.5343768731453,3298.6118214483186 L 515.7581432839345,3300.213843410441 L 516.1678359319811,3301.7041640910793 L 517.248463964573,3304.535991692986 L 517.5464553311363,3305.988836047915 L 517.7327454162161,3307.591221857859 L 517.919035501296,3309.3420575793516 L 518.0682131084887,3311.20495843015 L 517.9561479791829,3313.067859280948 L 517.6581566126197,3314.9307601317464 L 517.3230527681694,3316.644847223174 L 516.7267061872205,3317.948877818733 L 515.9815458469013,3318.992029525615 L 515.1246842250987,3319.7000773880472 L 513.2617833743004,3320.4077614026573 L 512.4049217524978,3320.4823502062536 L 511.65976141217857,3320.37064892477 L 510.4303196202162,3319.8117786695307 L 509.83397303926733,3319.4017221736617 L 509.1634015025445,3318.6565618333425 L 508.12024979566206,3316.5331459416907 L 507.74766962550234,3315.229115346132 L 507.59849201830957,3313.6267295361877 L 507.74766962550234,3309.9384041603007 L 508.04566099206556,3308.1126157873896 L 508.6045312473051,3306.4734813473806 L 510.09485192794364,3303.6045412675867 L 510.9891898754556,3302.300510672028 L 511.9577527787418,3300.884778794986 L 513.8952424331363,3297.456968459953 L 514.9383941400188,3295.9666477793144 L 515.832732087531,3294.5880283801594 L 517.4347540496528,3292.017079666929 L 518.0307367827793,3290.8251142006757 L 518.6641958416152,3289.744486168084 L 519.5956462670142,3287.9932865987694 L 519.8936376335776,3287.2856025841593 L 520.0428152407703,3286.7267323289198 L 520.1174040443667,3285.9815719886005 L 520.1174040443667,3285.7206930999246 L 520.1174040443667,3285.422701733361 L 519.9682264371738,3284.416662504366 L 519.8565251556905,3283.9694935306097 L 519.7819363520941,3283.6715021640466 L 519.7073475484976,3283.41062327537 L 519.6702350706106,3283.149744386694 L 519.5956462670142,3282.926341823727 L 519.5210574634178,3282.7400517386473 L 519.4464686598214,3282.4791728499713 L 519.4464686598214,3282.442060372084 L 519.7073475484976,3282.926341823727 L 520.6016854960097,3285.1989353225717 L 521.1976682291362,3286.54044224384 L 521.6448372028922,3288.104987880253 L 522.2408199360186,3292.017079666929 L 522.3528850653245,3294.066270602807 L 522.4271100210985,3295.929171453605 L 522.6508764318877,3298.9844016184784 L 522.7254652354842,3299.8787395659906 L 522.8742789948545,3300.5493111027135 L 523.0605690799343,3301.0335925543563 L 523.1351578835308,3301.1452938358398 L 523.2097466871271,3301.2573589651456 L 523.3585604464976,3301.369060246629 L 523.4331492500941,3301.369060246629 L 523.5823268572868,3301.1827701615493 L 523.6940281387702,3300.8473024692767 L 523.88031822385,3300.1396184546666 L 524.0666083089299,3299.2823929850415 L 524.2528983940097,3298.164652474563 L 524.327487197606,3296.8980982047133 L 524.4391884790895,3295.742881368525 L 524.513777282686,3294.6626171837556 L 524.6254785641693,3293.433175391793 L 524.960946256442,3291.5702745409953 L 525.1097600158124,3290.862226678563 L 525.2214612972957,3290.4896465084034 L 525.482340185972,3289.9678887310506 L 525.5940414674553,3289.8190749716805 L 525.7432190746482,3289.707373690197 L 526.2649768520006,3289.6327848866003 L 526.860959585127,3289.8190749716805 L 527.7178212069298,3290.4150577048067 L 529.133553083972,3292.6134262478777 L 529.6181983834374,3293.879980517727 L 529.9161897500006,3295.2585999168823 L 530.1024798350804,3298.3138300817554 L 530.1395923129675,3299.804150762394 L 530.065003509371,3301.2573589651456 L 530.065003509371,3301.2573589651456" stroke="#DC2626" stroke-width="2" opacity="0.9"/>
  </g>
  <g id="stroke-group-hhu4fdqzu6-8" data-anchor-line="106" data-timestamp="2026-04-22T06:37:31Z">
    <path d="M 447.53849581901216,3406.436668231649 L 447.53849581901216,3406.436668231649 L 447.53849581901216,3406.436668231649 L 447.53849581901216,3406.436668231649 L 449.2896953883269,3404.94634755101 L 452.9783846120363,3401.9285937118466 L 454.95298674431785,3400.5128618348044 L 457.03929015808285,3399.134242435649 L 459.0884810939608,3398.1653156845405 L 461.2497371591446,3397.085051499771 L 465.944101764027,3394.73786919733 L 470.2287737208628,3392.2040329619867 L 473.50740644870314,3389.9314394631415 L 476.1900564434169,3387.9568373308603 L 478.20213490140793,3386.727395538898 L 479.3941003676608,3385.460477421226 L 479.6178667784501,3384.9016071659867 L 479.4315766933702,3384.67820460302 L 477.9037796870223,3384.30562443286 L 474.77432456637484,3384.30562443286 L 471.79368320509775,3385.0878972510664 L 468.88763064741704,3385.646767506306 L 465.944101764027,3386.093936480062 L 463.7086207430692,3386.1685252836583 L 462.3300013439141,3386.317339043029 L 461.92030869586745,3386.391927846625 L 461.8828323701581,3386.317339043029 L 462.10659878094737,3386.242750239432 L 464.49089356127547,3385.646767506306 L 467.8441150927122,3385.01330844747 L 470.7505314982153,3384.529026995827 L 473.32111636362333,3384.1193343477803 L 475.4448961030977,3384.0072692184744 L 477.23320815029945,3384.268148107151 L 478.42553746437477,3384.8644946880995 L 478.723528830938,3385.460477421226 L 478.38842498648773,3387.062499383348 L 477.121506868816,3388.9628765598554 L 475.6682986660644,3390.7511886070574 L 474.3642680705058,3391.7197515103435 L 473.7311728594924,3392.2040329619867 L 473.4702939708161,3392.5023881763723 L 473.4702939708161,3392.5023881763723" stroke="#DC2626" stroke-width="2" opacity="0.9"/>
  </g>
  <g id="stroke-group-hhu4fdqzu6-9" data-anchor-line="105" data-timestamp="2026-04-22T06:37:32Z">
    <path d="M 507.6359683440189,3364.968568062446 L 507.6359683440189,3364.968568062446 L 507.6359683440189,3364.968568062446 L 507.6359683440189,3364.968568062446 L 507.6359683440189,3364.968568062446 L 507.6359683440189,3364.968568062446 L 507.6359683440189,3364.968568062446 L 506.85333167799035,3366.347187461601 L 506.21987261915444,3367.7629193386433 L 505.6984786896244,3369.141538737799 L 505.2513097158683,3370.408093007648 L 504.84161706782174,3371.563309843836 L 504.6178506570325,3372.5693490728318 L 504.46903689766214,3373.388734368925 L 504.39444809406564,3374.05966975347 L 504.39444809406564,3374.5439512051134 L 504.5432618534361,3375.102821460353 L 504.69243946062886,3375.251635219723 L 504.9158420235957,3375.3262240233194 L 505.2884221937553,3375.363700349029 L 505.84729244899484,3375.2891115454327 L 507.67308082190596,3374.320184794324 L 508.4553536401122,3373.537911976118 L 509.12628902465747,3372.531872747122 L 509.75938423567095,3370.7435606999206 L 509.83397303926733,3369.9612878817143 L 509.7968605613804,3369.253240019282 L 509.3496915876243,3368.098387030916 L 509.01422389535173,3367.539516775677 L 508.5299424437087,3366.943170194728 L 507.11421056666654,3365.8629060099584 L 506.40616270423425,3365.564550795573 L 505.7355911675114,3365.3782607104927 L 504.24527048687287,3365.191970625413 L 503.94727912030964,3365.191970625413 L 503.50011014655365,3365.2294469511226 L 503.31382006147373,3365.2665594290092 L 503.12752997639393,3365.341148232606 L 502.9787162170236,3365.4903258397985 L 502.8295386098307,3365.6766159248787 L 502.68036100263794,3366.1980098544086 L 502.643248524751,3366.756880109648 L 502.643248524751,3366.756880109648" stroke="#DC2626" stroke-width="2" opacity="0.9"/>
  </g>
  <g id="stroke-group-hhu4fdqzu6-10" data-anchor-line="105" data-timestamp="2026-04-22T06:37:32Z">
    <path d="M 515.3480867880654,3359.827034483808 L 515.3480867880654,3359.827034483808 L 515.3480867880654,3359.827034483808 L 515.3480867880654,3359.827034483808 L 516.2795372134646,3363.4036585782114 L 517.2109876388636,3367.017758998324 L 518.1053255863758,3370.482681811244 L 518.9621872081784,3373.9476046241643 L 519.5210574634178,3376.0713843636386 L 519.9311139592869,3377.5617050442775 L 520.266217803737,3378.7169218804656 L 520.5270966924134,3379.6854847837517 L 520.8250880589766,3380.3560563204746 L 521.0488544697658,3380.840337772118 L 521.1976682291362,3381.1386929865034 L 521.346845836329,3381.4737968309537 L 521.4214346399255,3381.5854981124367 L 521.4214346399255,3381.5854981124367" stroke="#DC2626" stroke-width="2" opacity="0.9"/>
  </g>
  <g id="stroke-group-hhu4fdqzu6-11" data-anchor-line="105" data-timestamp="2026-04-22T06:37:32Z">
    <path d="M 527.7924100105262,3360.6093073020143 L 527.7924100105262,3360.6093073020143 L 527.7924100105262,3360.6093073020143 L 527.7924100105262,3360.6093073020143 L 527.7924100105262,3360.6093073020143 L 527.7924100105262,3360.6093073020143 L 526.9355483887235,3362.9939659301644 L 525.966621637615,3365.341148232606 L 523.8057294202537,3369.9238115560047 L 522.7254652354842,3371.9730024918827 L 521.6448372028922,3373.2770330874414 L 520.6387979738968,3374.5439512051134 L 519.7073475484976,3375.624215389883 L 518.9250747302914,3376.555665815282 L 518.3287281493425,3377.1145360705214 L 518.0682131084887,3377.3383024813106 L 517.9936243048923,3377.450003762794 L 517.9936243048923,3377.4871162406807 L 518.0307367827793,3377.4871162406807 L 518.1424380642627,3377.4871162406807 L 518.9621872081784,3377.3383024813106 L 522.2037074581317,3376.4068520559113 L 524.2900108718967,3375.698804193479 L 526.4512669370805,3374.95364385316 L 530.7730513718033,3373.537911976118 L 533.008532392761,3373.0161541987654 L 535.0577233286391,3372.531872747122 L 538.2246547749959,3372.233881380559 L 539.156105200395,3372.4201714656388 L 539.7895642592309,3372.867340439395 L 540.1992569072775,3373.314509413151 L 540.1992569072775,3373.314509413151" stroke="#DC2626" stroke-width="2" opacity="0.9"/>
  </g>
  <g id="stroke-group-hhu4fdqzu6-12" data-anchor-line="109" data-timestamp="2026-04-22T06:37:46Z">
    <path d="M 458.4553858829473,3498.6991865023465 L 458.4553858829473,3498.6991865023465 L 458.4553858829473,3498.6991865023465 L 458.4553858829473,3498.6991865023465 L 461.39855091851507,3497.5814459918674 L 466.91266466731315,3495.6068438595858 L 469.3719120990602,3494.526215826994 L 471.3094017534547,3493.7068305309003 L 474.43885687410227,3492.216509850262 L 476.1900564434169,3491.583050791426 L 478.23924737929497,3490.9495917325903 L 482.1513391659711,3489.7947387442246 L 483.86506240957647,3489.310093444759 L 485.20656933084456,3488.9749896003086 L 487.10658265952975,3488.341530541473 L 487.62834043688224,3488.080651652797 L 487.81463052196204,3488.0060628492 L 488.00092060704173,3487.8943615677167 L 488.07550941063823,3487.85724908983 L 488.07550941063823,3487.8197727641204 L 487.92633180344546,3487.8197727641204 L 487.55375163328574,3487.85724908983 L 486.6968900114831,3488.0060628492 L 483.82794993168943,3488.639521908036 L 482.30051677316396,3488.863288318825 L 480.92189737400884,3488.9749896003086 L 478.57471507156754,3489.1612796853888 L 477.60578832045906,3489.1983921632755 L 477.121506868816,3489.1983921632755 L 476.7489266986564,3489.1612796853888 L 476.637225417173,3489.1612796853888 L 476.5255241356896,3489.123803359679 L 476.41345900638385,3489.123803359679 L 476.41345900638385,3489.086690881792 L 476.5626366135766,3489.0121020781958 L 479.170697804694,3488.490708148666 L 480.95900985189576,3488.1923529342803 L 482.8964995062904,3487.8943615677167 L 486.36142231921053,3487.67095900475 L 487.7771541962526,3487.5592577232665 L 488.9694835103279,3487.48466891967 L 490.64609427604626,3487.5592577232665 L 490.98156196831894,3487.5963702011536 L 491.1303757276893,3487.67095900475 L 491.27955333488217,3487.9318378934263 L 491.3166658127691,3488.118127978506 L 491.27955333488217,3488.37864301936 L 490.72068307964264,3489.6084486591444 L 489.9755227393234,3490.688712843914 L 488.93237103244087,3491.7318645507967 L 486.6223012078867,3493.930233093867 L 485.4299718938114,3494.8987959971537 L 485.4299718938114,3494.8987959971537" stroke="#DC2626" stroke-width="2" opacity="0.9"/>
  </g>
  <g id="stroke-group-hhu4fdqzu6-13" data-anchor-line="109" data-timestamp="2026-04-22T06:37:47Z">
    <path d="M 503.1650063021034,3486.1806383241114 L 503.1650063021034,3486.1806383241114 L 503.1650063021034,3486.1806383241114 L 503.1650063021034,3486.1806383241114 L 503.1650063021034,3486.1806383241114 L 503.1650063021034,3486.1806383241114 L 503.1650063021034,3486.1806383241114 L 503.5746989501499,3486.5157421685617 L 503.94727912030964,3486.8512098608344 L 504.3569717683563,3487.186677553107 L 504.76702826422536,3487.5217813975573 L 505.21419723798135,3487.8943615677167 L 505.66100236391503,3488.1923529342803 L 506.071058859784,3488.490708148666 L 506.5182278335401,3488.7512231895194 L 506.92792048158674,3488.937513274599 L 507.37508945534273,3489.123803359679 L 507.82225842909884,3489.1983921632755 L 507.82225842909884,3489.1983921632755" stroke="#DC2626" stroke-width="2" opacity="0.9"/>
  </g>
  <g id="stroke-group-hhu4fdqzu6-14" data-anchor-line="109" data-timestamp="2026-04-22T06:37:47Z">
    <path d="M 513.6714760223471,3482.9762305520453 L 513.6714760223471,3482.9762305520453 L 513.6714760223471,3482.9762305520453 L 513.6714760223471,3482.9762305520453 L 513.6714760223471,3482.9762305520453 L 513.4851859372673,3485.360889180196 L 512.6283243154646,3490.055253785078 L 511.92064030085476,3492.6633149761956 L 511.1380036348261,3495.3088524930226 L 510.39284329450686,3497.8423248805434 L 509.685159279897,3500.3386847901775 L 508.9771114174647,3502.5741658111356 L 508.3436523586288,3504.51165546553 L 507.74766962550234,3506.0390886240557 L 507.1887993702629,3507.343119219614 L 506.66704159291044,3508.610037337286 L 506.21987261915444,3509.7277778477646 L 505.5867774081411,3511.590678698563 L 505.4747122788352,3512.2237739095763 L 505.4375998009482,3512.4846527982527 L 505.4375998009482,3512.633830405445 L 505.4747122788352,3512.782644164816 L 505.5493010824316,3512.857232968412 L 505.6984786896244,3512.8947092941216 L 505.6984786896244,3512.8947092941216" stroke="#DC2626" stroke-width="2" opacity="0.9"/>
  </g>
  <g id="stroke-group-hhu4fdqzu6-15" data-anchor-line="109" data-timestamp="2026-04-22T06:37:47Z">
    <path d="M 522.7254652354842,3486.5532184942713 L 522.7254652354842,3486.5532184942713 L 522.7254652354842,3486.5532184942713 L 522.7254652354842,3486.5532184942713 L 522.2037074581317,3491.3967607063464 L 521.8682397658591,3493.7439430087875 L 521.5702483992959,3496.1657141148253 L 521.2722570327326,3498.7737753059428 L 521.1230794255398,3500.6366761567406 L 520.9742656661693,3501.642715385736 L 520.9742656661693,3502.499577007539 L 521.0113781440564,3503.021334784891 L 521.1976682291362,3503.7290187995013 L 521.2722570327326,3503.878196406694 L 521.4585471178125,3504.064486491774 L 521.5702483992959,3504.1390752953703 L 521.7565384843757,3504.1390752953703 L 521.9428285694554,3504.1015989696607 L 521.9428285694554,3504.1015989696607" stroke="#DC2626" stroke-width="2" opacity="0.9"/>
  </g>
  <g id="stroke-group-hhu4fdqzu6-16" data-anchor-line="109" data-timestamp="2026-04-22T06:37:47Z">
    <path d="M 523.917430701737,3488.0060628492 L 523.917430701737,3488.0060628492 L 523.917430701737,3488.0060628492 L 523.917430701737,3488.0060628492 L 523.917430701737,3488.0060628492 L 523.917430701737,3488.0060628492 L 523.917430701737,3488.0060628492 L 524.7000673677658,3487.2237900309938 L 525.6686302710518,3486.4040408870783 L 526.7492583036437,3485.621768068872 L 527.7178212069298,3485.0254214879233 L 528.7984492395217,3484.39232627691 L 529.5807220577279,3483.945157303154 L 530.4004712016437,3483.572577132994 L 531.108519064076,3483.3488107222047 L 531.7416142750893,3483.3488107222047 L 532.2262595745549,3483.4979883293977 L 532.7476535040848,3483.8705684995575 L 532.7476535040848,3483.8705684995575" stroke="#DC2626" stroke-width="2" opacity="0.9"/>
  </g>
  <g id="stroke-group-hhu4fdqzu6-17" data-anchor-line="109" data-timestamp="2026-04-22T06:37:47Z">
    <path d="M 528.3512802657657,3492.7753801055014 L 528.3512802657657,3492.7753801055014 L 528.3512802657657,3492.7753801055014 L 528.3512802657657,3492.7753801055014 L 528.3512802657657,3492.7753801055014" stroke="#DC2626" stroke-width="2" opacity="0.9"/>
  </g>
  <g id="stroke-group-hhu4fdqzu6-18" data-anchor-line="109" data-timestamp="2026-04-22T06:37:48Z">
    <path d="M 525.4077513823756,3503.8407200809847 L 525.4077513823756,3503.8407200809847 L 525.4077513823756,3503.8407200809847 L 526.5629682185638,3503.2076248699714 L 529.1710294096813,3501.7544166672196 L 530.6238737646104,3500.934667523304 L 531.9653806858786,3500.114918379388 L 534.6851431584794,3498.9600653910225 L 535.6911823874749,3498.4757839393797 L 536.5109315313906,3497.9915024877364 L 536.5109315313906,3497.9915024877364" stroke="#DC2626" stroke-width="2" opacity="0.9"/>
  </g>
  <g id="stroke-group-hhu4fdqzu6-19" data-anchor-line="109" data-timestamp="2026-04-22T06:37:48Z">
    <path d="M 548.7314883430621,3484.0939710625244 L 548.7314883430621,3484.0939710625244 L 548.7314883430621,3484.0939710625244 L 548.7314883430621,3484.0939710625244 L 548.7314883430621,3484.0939710625244 L 548.7314883430621,3484.0939710625244 L 548.7314883430621,3484.0939710625244 L 548.7314883430621,3484.0939710625244 L 548.7314883430621,3484.0939710625244 L 548.768600820949,3484.951196532149 L 549.1411809911087,3486.2177508019986 L 549.8117525278316,3487.4471925939606 L 550.7060904753437,3488.4532318229562 L 551.7121297043392,3489.3475697704685 L 552.7181689333347,3490.2415438701582 L 554.0221995288933,3490.837890451107 L 555.5125202095319,3491.0987693397833 L 556.928252086574,3491.3221719027497 L 558.2322826821328,3491.5455744657165 L 559.3125468669023,3491.806453354393 L 560.0205947293346,3491.9927434394726 L 560.5048761809775,3492.253622328149 L 560.579464984574,3492.3653236096325 L 560.616577462461,3492.514501216825 L 560.2068848144143,3493.222185231435 L 559.2008455854188,3494.1165231789473 L 557.7105249047803,3495.0108611264595 L 554.5064809805364,3496.389116677792 L 552.829870214818,3496.9108744551445 L 551.2649607305831,3497.320567103191 L 548.6197870615787,3498.028614965623 L 547.5391590289868,3498.2894938542995 L 546.6077086035876,3498.43830761367 L 545.3782668116254,3498.6620740244593 L 545.0802754450622,3498.6991865023465 L 544.8939853599824,3498.7366628280556 L 544.7076952749026,3498.7737753059428 L 544.7076952749026,3498.7737753059428" stroke="#DC2626" stroke-width="2" opacity="0.9"/>
  </g>
  <g id="stroke-group-hhu4fdqzu6-20" data-anchor-line="109" data-timestamp="2026-04-22T06:37:48Z">
    <path d="M 526.8980720630141,3496.2774153963087 L 526.8980720630141,3496.2774153963087 L 526.8980720630141,3496.2774153963087 L 526.8980720630141,3496.2774153963087 L 526.8980720630141,3496.2774153963087 L 526.8980720630141,3496.2774153963087 L 526.8980720630141,3496.2774153963087 L 530.027891031484,3494.3774020676233 L 531.5553241900095,3493.594765401595 L 532.9714199148741,3492.887081386985 L 534.2008617068365,3492.402799935342 L 535.1694246101224,3492.030219765182 L 535.8399961468452,3491.7318645507967 L 536.1754638391179,3491.6201632693133 L 536.7343340943575,3491.4338731842336 L 536.9577366573242,3491.359284380637 L 537.1815030681134,3491.359284380637 L 537.6286720418694,3491.359284380637 L 537.6286720418694,3491.359284380637" stroke="#DC2626" stroke-width="2" opacity="0.9"/>
  </g>
  <g id="stroke-group-hhu4fdqzu6-21" data-anchor-line="109" data-timestamp="2026-04-22T06:37:49Z">
    <path d="M 560.9149326768465,3478.2072771435664 L 560.9149326768465,3478.2072771435664 L 560.9149326768465,3478.2072771435664 L 560.9149326768465,3478.2072771435664 L 560.9149326768465,3478.2072771435664 L 560.9149326768465,3478.2072771435664 L 560.9149326768465,3478.2072771435664 L 560.9149326768465,3478.2072771435664 L 560.9149326768465,3478.2072771435664 L 560.9149326768465,3478.2072771435664 L 560.9149326768465,3478.2072771435664 L 560.9149326768465,3478.2072771435664 L 560.9149326768465,3478.2072771435664 L 560.5423525066869,3478.1701646656793 L 560.2068848144143,3478.1701646656793 L 559.9088934478511,3478.2072771435664 L 559.5734257555785,3478.244753469276 L 559.2754343890152,3478.2818659471627 L 558.9028542188556,3478.3564547507594 L 558.1205814006493,3478.579857313726 L 557.6734124268933,3478.729034920919 L 556.8536632829775,3478.9899138095952 L 555.3633426023391,3479.5487840648343 L 554.5810697841329,3479.846775431398 L 553.8730219217006,3480.107654320074 L 552.419813718949,3480.6665245753134 L 551.7492421822262,3481.0016284197636 L 551.451250815663,3481.3742085899235 L 550.5943891938603,3482.678239185482 L 550.1843326979912,3483.4233995258014 L 549.9238176571374,3483.9822697810405 L 549.7000512463482,3484.6528413177634 L 549.6629387684611,3484.951196532149 L 549.6629387684611,3484.951196532149" stroke="#DC2626" stroke-width="2" opacity="0.9"/>
  </g>
  <g id="stroke-group-hhu4fdqzu6-22" data-anchor-line="109" data-timestamp="2026-04-22T06:37:50Z">
    <path d="M 600.6689457546215,3475.077822022919 L 600.6689457546215,3475.077822022919 L 600.6689457546215,3475.077822022919 L 601.0790022504906,3480.6290482496042 L 601.1535910540871,3483.274585766431 L 601.2278160098609,3485.621768068872 L 601.3398811391668,3489.906440025708 L 601.3024048134573,3490.9495917325903 L 601.2652923355705,3491.50846198783 L 601.2652923355705,3491.806453354393 L 601.2652923355705,3492.030219765182 L 601.2652923355705,3492.179033524553 L 601.2652923355705,3492.290734806036 L 601.2652923355705,3492.290734806036" stroke="#DC2626" stroke-width="2" opacity="0.9"/>
  </g>
  <g id="stroke-group-hhu4fdqzu6-23" data-anchor-line="109" data-timestamp="2026-04-22T06:37:50Z">
    <path d="M 600.3338419101714,3477.014947829491 L 600.3338419101714,3477.014947829491 L 601.1161147283776,3476.307263814881 L 602.0850414794861,3475.562103474562 L 604.2830461747345,3474.220596553294 L 605.7733668553731,3473.6617262980544 L 607.5616789025747,3473.252033650008 L 611.1011905190913,3473.1403323685245 L 612.7406888069227,3473.4012112572004 L 614.1938970096742,3473.810903905247 L 616.2056116198428,3475.077822022919 L 616.8390706786786,3475.9346836447216 L 617.2116508488382,3476.8661340701206 L 617.1370620452419,3479.2504288504488 L 616.6527805935988,3480.5544594460075 L 615.9447327311665,3481.895966367276 L 613.5975504287253,3484.690317643473 L 612.2189310295702,3485.8826469575483 L 610.803199152528,3486.962911142318 L 608.0463242020402,3488.7512231895194 L 606.7422936064814,3489.5709723334353 L 605.5870767702932,3490.204431392271 L 603.7987647230915,3491.172994295557 L 603.3890720750447,3491.359284380637 L 603.1653056642555,3491.4338731842336 L 602.8673142976924,3491.50846198783 L 602.7181366904995,3491.50846198783 L 602.6064354090161,3491.50846198783 L 602.5318466054198,3491.4713495099427 L 602.5318466054198,3491.4713495099427" stroke="#DC2626" stroke-width="2" opacity="0.9"/>
  </g>
  <g id="stroke-group-hhu4fdqzu6-24" data-anchor-line="108" data-timestamp="2026-04-22T06:37:50Z">
    <path d="M 627.3459042467447,3474.29518535689 L 627.3459042467447,3474.29518535689 L 625.8926960439932,3478.6915585952092 L 625.110423225787,3481.0016284197636 L 624.2906740818713,3483.162520637125 L 622.9120546827162,3486.776621057238 L 622.3160719495897,3488.1923529342803 L 621.8317904979466,3489.4221585740647 L 621.2354439169977,3491.4338731842336 L 621.1237426355143,3491.955630961586 L 621.1237426355143,3492.179033524553 L 621.1612189612239,3492.4399124132287 L 621.1612189612239,3492.4399124132287" stroke="#DC2626" stroke-width="2" opacity="0.9"/>
  </g>
  <g id="stroke-group-hhu4fdqzu6-25" data-anchor-line="108" data-timestamp="2026-04-22T06:37:51Z">
    <path d="M 627.3830167246317,3469.414530666928 L 627.3830167246317,3469.414530666928 L 627.3830167246317,3469.414530666928 L 627.3830167246317,3469.414530666928 L 627.3830167246317,3469.414530666928 L 629.655974071299,3469.2653530597354 L 630.5128356931016,3469.3028293854445 L 631.2579960334209,3469.3770543412184 L 631.8168662886603,3469.451643144815 L 632.3386240660128,3469.6379332298948 L 633.0091956027358,3469.898812118571 L 633.3817757728953,3470.234279810844 L 633.6797671394586,3470.7185612624867 L 633.9777585060217,3472.656050916881 L 633.9777585060217,3472.656050916881" stroke="#DC2626" stroke-width="2" opacity="0.9"/>
  </g>
  <g id="stroke-group-hhu4fdqzu6-26" data-anchor-line="109" data-timestamp="2026-04-22T06:37:51Z">
    <path d="M 627.0479128801816,3482.491949100402 L 627.0479128801816,3482.491949100402 L 628.7616361237868,3481.970555170872 L 632.2640352624164,3480.815338334684 L 633.9031697024253,3480.144766797961 L 635.4309667087733,3479.6230090206086 L 637.4801576446513,3478.803623724515 L 637.9273266184073,3478.579857313726 L 638.1507291813741,3478.4681560322424 L 638.4861968736467,3478.3564547507594 L 638.5978981551301,3478.3564547507594 L 638.6724869587266,3478.3564547507594 L 638.6350106330171,3478.4681560322424 L 638.5233093515337,3478.542744835839 L 638.1878416592612,3478.8407362024022 L 636.3624171341725,3480.3310568830407 L 635.0583865386137,3481.4487973935197 L 633.7914684209419,3482.491949100402 L 630.9971171447447,3484.4665512326837 L 629.5813852677026,3485.5471792652756 L 628.3519434757403,3486.590330972158 L 626.1910512583788,3488.5649331044397 L 625.4084145923501,3489.4963835298386 L 624.8495443371107,3490.3161326737545 L 624.4023753633547,3491.5455744657165 L 624.3652628854677,3491.881042157989 L 624.4023753633547,3492.030219765182 L 624.6261417741439,3492.290734806036 L 624.8870206628202,3492.402799935342 L 625.5947046774301,3492.551613694712 L 628.4265322793366,3492.551613694712 L 629.9539654378622,3492.216509850262 L 631.5934637256936,3491.7318645507967 L 634.7975076499374,3490.353608999464 L 636.2132395269796,3489.6455611370316 L 637.5172701225383,3488.9004007967123 L 639.8644524249794,3487.0003874680274 L 639.8644524249794,3487.0003874680274" stroke="#DC2626" stroke-width="2" opacity="0.9"/>
  </g>
  <g id="stroke-group-hhu4fdqzu6-27" data-anchor-line="108" data-timestamp="2026-04-22T06:37:51Z">
    <path d="M 646.7571855729327,3473.699202623764 L 646.7571855729327,3473.699202623764 L 646.7571855729327,3473.699202623764 L 646.7571855729327,3473.699202623764 L 646.7571855729327,3473.699202623764 L 645.7886226696465,3478.058463384196 L 645.1551636108107,3481.560498675003 L 645.0063498514404,3482.8274167926747 L 644.8571722442475,3484.20603619183 L 644.7454709627641,3485.584291743163 L 644.8200597663606,3486.292339605595 L 644.9688735257308,3486.6649197757547 L 645.1551636108107,3486.8883223387215 L 645.3414536958906,3487.0003874680274 L 645.90032395113,3487.2237900309938 L 648.1358049720878,3487.186677553107 L 649.7007144563227,3486.739508579351 L 651.3402127441541,3486.068937042628 L 654.2087889761254,3484.20603619183 L 654.2087889761254,3484.20603619183" stroke="#DC2626" stroke-width="2" opacity="0.9"/>
  </g>
  <g id="stroke-group-hhu4fdqzu6-28" data-anchor-line="108" data-timestamp="2026-04-22T06:37:51Z">
    <path d="M 659.3506864025862,3471.6871241657727 L 659.3506864025862,3471.6871241657727 L 659.3506864025862,3471.6871241657727 L 659.3506864025862,3471.6871241657727 L 659.3506864025862,3471.6871241657727 L 659.2386212732804,3474.183484075407 L 658.8289286252339,3479.325017654045 L 658.605526062267,3481.7096762821957 L 658.4563484550741,3484.01974610675 L 658.1208807628016,3486.5157421685617 L 658.0837682849145,3487.074612423801 L 658.0466558070275,3487.3729676381868 L 658.0466558070275,3487.5963702011536 L 658.0466558070275,3487.7826602862333 L 658.0466558070275,3487.9689503713134 L 658.0466558070275,3488.118127978506 L 658.0466558070275,3488.304418063586 L 658.0837682849145,3488.341530541473 L 658.1208807628016,3488.304418063586 L 658.2329458921074,3488.080651652797 L 658.2329458921074,3488.080651652797" stroke="#DC2626" stroke-width="2" opacity="0.9"/>
  </g>
  <g id="stroke-group-hhu4fdqzu6-29" data-anchor-line="108" data-timestamp="2026-04-22T06:37:51Z">
    <path d="M 659.4249113583603,3471.053665106937 L 659.4249113583603,3471.053665106937 L 659.4249113583603,3471.053665106937 L 659.4249113583603,3471.053665106937 L 659.4249113583603,3471.053665106937 L 659.4249113583603,3471.053665106937 L 661.0644096461915,3470.4205698959236 L 662.6293191304266,3469.935924596458 L 664.1567522889521,3469.5633444262985 L 666.3176445063134,3469.3770543412184 L 667.0256923687457,3469.414530666928 L 667.5099738203888,3469.5633444262985 L 668.1805453571117,3469.898812118571 L 668.4789005714972,3470.1968034851343 L 668.4789005714972,3470.1968034851343" stroke="#DC2626" stroke-width="2" opacity="0.9"/>
  </g>
  <g id="stroke-group-hhu4fdqzu6-30" data-anchor-line="109" data-timestamp="2026-04-22T06:37:52Z">
    <path d="M 662.8156092155064,3478.8778486802894 L 662.8156092155064,3478.8778486802894 L 664.2684535704356,3478.3564547507594 L 665.6099604917035,3477.94639825489 L 668.2926104864175,3476.9407228737173 L 670.5652039852622,3476.307263814881 L 671.5712432142578,3476.009272448318 L 671.906347058708,3475.971796122609 L 671.906347058708,3475.971796122609" stroke="#DC2626" stroke-width="2" opacity="0.9"/>
  </g>
  <g id="stroke-group-hhu4fdqzu6-31" data-anchor-line="109" data-timestamp="2026-04-22T06:37:52Z">
    <path d="M 657.8974781998347,3488.825811993116 L 657.8974781998347,3488.825811993116 L 657.8974781998347,3488.825811993116 L 657.8974781998347,3488.825811993116 L 657.8974781998347,3488.825811993116 L 662.2192626345574,3487.4471925939606 L 666.4297096356192,3485.956871913322 L 669.8571561228299,3484.690317643473 L 671.0494854369052,3484.243148669717 L 672.0555246659007,3483.795979695961 L 672.8752738098163,3483.3862870479143 L 672.8752738098163,3483.3862870479143" stroke="#DC2626" stroke-width="2" opacity="0.9"/>
  </g>
  <g id="stroke-group-hhu4fdqzu6-32" data-anchor-line="108" data-timestamp="2026-04-22T06:37:52Z">
    <path d="M 676.5264867078164,3472.3951720282053 L 676.5264867078164,3472.3951720282053 L 676.5264867078164,3472.3951720282053 L 678.5756776436943,3471.8363017729657 L 680.5131672980889,3471.3520203213225 L 682.1523017380978,3470.979440151163 L 684.3135578032818,3470.5693836552937 L 684.6861379734413,3470.4205698959236 L 684.9466530142951,3470.345981092327 L 685.4312983137606,3470.2713922887306 L 685.4312983137606,3470.2713922887306" stroke="#DC2626" stroke-width="2" opacity="0.9"/>
  </g>
  <g id="stroke-group-hhu4fdqzu6-33" data-anchor-line="108" data-timestamp="2026-04-22T06:37:52Z">
    <path d="M 681.034561227619,3472.916565957735 L 681.034561227619,3472.916565957735 L 681.034561227619,3472.916565957735 L 681.034561227619,3472.916565957735 L 681.034561227619,3472.916565957735 L 681.034561227619,3472.916565957735 L 681.8171978936476,3475.7109172339324 L 682.1897780638074,3477.7601081698103 L 682.3014793452907,3478.4681560322424 L 682.376068148887,3479.2504288504488 L 682.4877694303705,3480.852814660393 L 682.5248819082575,3481.6721999564866 L 682.5248819082575,3482.193957733839 L 682.562358233967,3483.088295681351 L 682.5994707118539,3483.4608758515105 L 682.7111719933372,3483.795979695961 L 682.7111719933372,3483.795979695961" stroke="#DC2626" stroke-width="2" opacity="0.9"/>
  </g>
  <g id="stroke-group-hhu4fdqzu6-34" data-anchor-line="108" data-timestamp="2026-04-22T06:37:52Z">
    <path d="M 694.7083262420421,3471.128253910533 L 694.7083262420421,3471.128253910533 L 694.4849236790752,3472.3951720282053 L 694.2986335939953,3473.550025016571 L 694.074867183206,3474.8169431342426 L 693.7022870130465,3478.095575862083 L 693.5534732536761,3479.7350741499145 L 693.3671831685963,3480.88992713828 L 693.1808930835165,3482.4548366225154 L 693.1063042799201,3483.088295681351 L 693.0317154763236,3483.6471659365907 L 692.9571266727272,3484.20603619183 L 692.9571266727272,3484.4294387547966 L 692.9571266727272,3484.6157288398767 L 693.1063042799201,3484.91372020644 L 693.1808930835165,3484.91372020644 L 693.1808930835165,3484.91372020644" stroke="#DC2626" stroke-width="2" opacity="0.9"/>
  </g>
  <g id="stroke-group-hhu4fdqzu6-35" data-anchor-line="108" data-timestamp="2026-04-22T06:37:53Z">
    <path d="M 697.4655650403523,3468.110500071369 L 697.4655650403523,3468.110500071369 L 697.4655650403523,3468.110500071369 L 697.4655650403523,3468.110500071369 L 697.4655650403523,3468.110500071369 L 697.4655650403523,3468.110500071369 L 699.7010460613101,3467.3278634053404 L 700.40873007592,3467.1790496459703 L 701.265955545545,3466.9927595608906 L 702.383696056024,3466.8064694758104 L 702.8679775076669,3466.731880672214 L 703.2776701557136,3466.694768194327 L 703.9857180181459,3466.8435819536976 L 704.5445882733853,3467.1790496459703 L 704.8425796399484,3467.961322464176 L 704.730878358465,3468.6693703266087 L 704.1720081032256,3469.712522033491 L 704.1720081032256,3469.712522033491" stroke="#DC2626" stroke-width="2" opacity="0.9"/>
  </g>
  <g id="stroke-group-hhu4fdqzu6-36" data-anchor-line="109" data-timestamp="2026-04-22T06:37:53Z">
    <path d="M 696.1986469226805,3475.822982363238 L 696.1986469226805,3475.822982363238 L 696.1986469226805,3475.822982363238 L 696.1986469226805,3475.822982363238 L 696.1986469226805,3475.822982363238 L 696.1986469226805,3475.822982363238 L 698.6950068323144,3475.897207319012 L 699.9244486242769,3475.8600948411254 L 700.9304878532723,3475.822982363238 L 702.197405970944,3475.822982363238 L 702.5699861411038,3475.822982363238 L 702.9425663112634,3475.8600948411254 L 703.5014365665028,3475.897207319012 L 703.6877266515826,3475.971796122609 L 703.8740167366625,3476.009272448318 L 703.9482416924365,3476.1209737298013 L 703.8740167366625,3476.2326750112848 L 703.35225895931,3476.754432788637 L 701.4147693049155,3478.393567228646 L 699.4030546947469,3480.1818792758477 L 697.875257688399,3481.7842650857924 L 697.5026775182394,3482.5294254261116 L 697.3163874331594,3483.311698244318 L 697.0555085444832,3484.280261147604 L 696.9812835887092,3484.5786163619896 L 696.9438072629998,3484.7649064470693 L 697.0929848701926,3485.0254214879233 L 697.4655650403523,3485.1000102915195 L 698.322426662155,3485.1000102915195 L 700.669608964596,3484.690317643473 L 701.8248258007844,3484.3548499512003 L 703.0542675927468,3483.945157303154 L 705.6248524581548,3482.902005596271 L 706.7800692943432,3482.3802478189186 L 707.8603334791126,3482.0822564523555 L 709.7232343299107,3481.560498675003 L 710.431282192343,3481.2996197863267 L 710.915563643986,3481.113329701247 L 711.3998450956292,3480.852814660393 L 711.3998450956292,3480.852814660393" stroke="#DC2626" stroke-width="2" opacity="0.9"/>
  </g>
  <g id="stroke-group-hhu4fdqzu6-37" data-anchor-line="120" data-timestamp="2026-04-22T06:37:56Z">
    <path d="M 422.836503306993,3830.903849033817 L 422.836503306993,3830.903849033817 L 422.836503306993,3830.903849033817 L 422.836503306993,3830.903849033817 L 422.836503306993,3830.903849033817 L 426.7114826157821,3833.5490227028217 L 429.915526540026,3836.790542952775 L 430.95867824690856,3838.429677392784 L 431.89012867230747,3840.2179894399856 L 432.9707567048995,3844.353847637451 L 433.1570467899793,3846.2167484882493 L 433.3433368750591,3848.303051902014 L 433.3433368750591,3852.103442407207 L 433.3062243971722,3853.4820618063623 L 433.1570467899793,3855.1957850499675 L 433.0078691827864,3857.2449759858455 L 432.93364422701245,3857.7292574374883 L 432.93364422701245,3857.8784350446813 L 432.8961679013031,3858.0276126518743 L 432.8961679013031,3858.0276126518743 L 433.0078691827864,3857.841322566794 L 433.1941592678663,3857.4687423966348 L 433.9767959338949,3855.978421715996 L 436.2493894327397,3852.58772385885 L 437.1808398581388,3851.2836932632913 L 438.48487045369757,3849.6816713011694 L 441.1304079705244,3847.222787717245 L 442.35984976248676,3846.440151051216 L 443.8501704431253,3845.3598868664467 L 445.8618850532938,3843.3478084084554 L 446.79333547869294,3842.8635269568126 L 447.8739635112847,3841.894600205704 L 449.6622755584866,3840.776859695225 L 450.4449122245153,3840.3671670471786 L 451.30177384631793,3839.6220067068593 L 451.30177384631793,3839.6220067068593" stroke="#DC2626" stroke-width="2" opacity="0.9"/>
  </g>
  <g id="stroke-group-hhu4fdqzu6-38" data-anchor-line="120" data-timestamp="2026-04-22T06:37:56Z">
    <path d="M 454.729584181351,3831.238952878268 L 454.729584181351,3831.238952878268 L 454.729584181351,3831.238952878268 L 454.729584181351,3831.238952878268 L 453.5372548672757,3832.4312821923427 L 452.41951435679687,3833.9587153508683 L 450.85460487256194,3836.939356712145 L 450.1094445322426,3838.3179761113006 L 449.77397683997003,3839.845409269826 L 449.77397683997003,3842.304656701573 L 449.9602669250497,3843.3478084084554 L 450.5566135059986,3844.390960115338 L 451.4505876056884,3845.6204019073 L 451.86064410155734,3845.769579514493 L 452.41951435679687,3845.732467036606 L 453.798133755952,3845.3598868664467 L 454.69210785564167,3844.987306696287 L 455.58644580315365,3844.316371311742 L 457.03929015808285,3842.826050631103 L 457.48645913183884,3842.043777812897 L 457.59816041332226,3841.410318754061 L 457.5239354575483,3840.2925782435823 L 457.4493466539519,3839.808296791939 L 457.30016904675904,3839.100248929507 L 456.66670998792324,3837.3865256859017 L 456.1824285362801,3836.5296640640986 L 455.6235582810407,3835.5982136386997 L 454.76669665923805,3834.1078929580613 L 454.43122896696536,3833.660723984305 L 454.282415207595,3833.4744338992255 L 454.0215363189187,3833.1018537290656 L 453.9098350374353,3832.915563643986 L 453.8352462338389,3832.7292735589062 L 453.7235449523555,3832.3566933887464 L 453.7235449523555,3832.1704033036667 L 453.76065743024253,3831.9470007407 L 454.24493888188556,3831.2018404003807 L 455.13927682939766,3830.493792537948 L 456.331606143473,3829.9349222827086 L 458.7904897273976,3829.4135283531787 L 461.54772852570784,3829.1526494645027 L 463.82032202455264,3829.525229634662 L 464.82636125354816,3830.158688693498 L 465.6832228753508,3831.0526627931877 L 466.8384397115392,3832.3566933887464 L 467.2110198816987,3833.064741251179 L 467.54612372614895,3834.0333041544645 L 467.99329269990506,3835.672802442296 L 468.10499398138836,3836.5296640640986 L 468.17958278498486,3836.9022442342584 L 468.2912840664683,3837.311936882305 L 468.3287603921776,3837.3865256859017 L 468.4029853479517,3837.4236381637884 L 468.6638642366279,3837.3865256859017 L 468.88763064741704,3837.2373480787087 L 469.4090245769472,3836.753066627066 L 470.78764397610234,3834.8901657762676 L 471.42110303493814,3833.7353127879014 L 471.90538448658117,3832.5058709959394 L 472.3525534603373,3830.6054938194316 L 472.42714226393355,3829.9349222827086 L 472.3896659382242,3829.301463223873 L 472.0170857680646,3827.960320150427 L 471.5699167943085,3827.550627502381 L 470.89934525758565,3827.1405710065114 L 470.042483635783,3826.8425796399483 L 468.44046167366105,3826.5071119476756 L 467.0618422745059,3826.6191770769815 L 465.38523150878757,3826.767990836352 L 462.92634792486297,3827.5131511766713 L 462.21830006243067,3827.8857313468307 L 461.6223173293042,3828.072021431911 L 460.95138194475896,3828.780069294343 L 460.83968066327554,3829.0409481830193 L 460.76509185967916,3829.376052027469 L 460.7279793817921,3829.8603334791123 L 460.95138194475896,3830.3449787785776 L 461.39855091851507,3830.866372708108 L 463.93202330603606,3831.9470007407 L 465.4223439866745,3831.8724119371036 L 465.4223439866745,3831.8724119371036" stroke="#DC2626" stroke-width="2" opacity="0.9"/>
  </g>
  <g id="stroke-group-hhu4fdqzu6-39" data-anchor-line="119" data-timestamp="2026-04-22T06:37:57Z">
    <path d="M 474.9231383257452,3819.651855125432 L 474.9231383257452,3819.651855125432 L 474.9231383257452,3819.651855125432 L 474.9231383257452,3819.651855125432 L 474.9231383257452,3819.651855125432 L 474.9231383257452,3819.651855125432 L 475.7428874696609,3821.51475597623 L 476.41345900638385,3823.228479219835 L 477.6432646461685,3826.805467162061 L 478.0900697721022,3828.6683680128594 L 478.38842498648773,3830.3820912564647 L 478.7981176345344,3833.2510313362586 L 478.9844077196142,3834.517585606108 L 479.2823990861774,3835.4490360315067 L 479.6549792563371,3836.4550752605023 L 479.76668053782043,3836.641365345582 L 479.8412693414168,3836.753066627066 L 479.95297062290024,3836.827655430662 L 479.95297062290024,3836.827655430662" stroke="#DC2626" stroke-width="2" opacity="0.9"/>
  </g>
  <g id="stroke-group-hhu4fdqzu6-40" data-anchor-line="119" data-timestamp="2026-04-22T06:37:57Z">
    <path d="M 487.55375163328574,3818.1615344447932 L 487.55375163328574,3818.1615344447932 L 487.55375163328574,3818.1615344447932 L 487.55375163328574,3818.1615344447932 L 487.55375163328574,3818.1615344447932 L 487.55375163328574,3818.1615344447932 L 487.55375163328574,3818.1615344447932 L 487.55375163328574,3818.1615344447932 L 486.65941368577376,3819.5772663218354 L 485.1319805272482,3822.3716175980326 L 484.49852146841226,3823.9365270822677 L 484.12594129825266,3825.277670155713 L 483.67877232449655,3827.401449895188 L 483.716248650206,3828.183722713394 L 483.7908374538024,3828.593779209263 L 484.46140899052523,3828.81718177223 L 485.20656933084456,3828.780069294343 L 486.3243098413235,3828.5191904056664 L 488.93237103244087,3827.326861091591 L 490.34810290948303,3826.5071119476756 L 491.7638347865251,3825.35225895931 L 494.89365375499506,3822.6696089645957 L 496.5702645207134,3821.51475597623 L 498.0976976792389,3820.434127943638 L 500.51946878527656,3818.459525811357 L 501.33921792919216,3817.5280753859574 L 501.8234993808353,3816.782915045638 L 502.3077808324782,3815.7022870130463 L 502.3077808324782,3815.367183168596 L 502.1960795509949,3814.957126672727 L 501.5255080142721,3814.0631525730373 L 500.89204895543617,3813.5788711213945 L 500.07229981152045,3813.1688146255256 L 498.0976976792389,3812.833710781075 L 497.2037235795492,3812.870823258962 L 496.3093856320372,3813.1317021476384 L 495.07994384007486,3813.8022736843614 L 494.70736366991525,3814.137741376634 L 494.483597259126,3814.472845221084 L 494.2230822182722,3815.0317154763234 L 494.18560589256276,3815.6280620572725 L 494.2973071740462,3816.410334875479 L 495.6013377696049,3818.38493700776 L 496.60737699860044,3819.2417986295627 L 497.68800503119223,3820.0244352955915 L 500.1097761372299,3821.551868454117 L 501.22751664770885,3822.4087300759197 L 502.2706683545913,3823.228479219835 L 503.76098903522984,3824.5699861411035 L 504.05898040179306,3825.35225895931 L 504.0964567275024,3826.134531777516 L 503.2767075835868,3827.848618868944 L 502.5686597211545,3828.7425929686333 L 501.562620492159,3829.487753308953 L 499.14084938612143,3830.419203734352 L 497.8368187905627,3830.829260230221 L 496.4210869135205,3831.0901391188972 L 493.9247270038866,3831.4252429633475 L 492.881575297004,3831.462355441234 L 492.0247136752014,3831.3881304854604 L 491.3912546163655,3831.015550315301 L 491.3912546163655,3831.015550315301" stroke="#DC2626" stroke-width="2" opacity="0.9"/>
  </g>
  <g id="stroke-group-hhu4fdqzu6-41" data-anchor-line="119" data-timestamp="2026-04-22T06:37:57Z">
    <path d="M 539.0815163967986,3805.0837521634967 L 539.0815163967986,3805.0837521634967 L 539.0815163967986,3805.0837521634967 L 539.0815163967986,3805.0837521634967 L 539.0815163967986,3805.0837521634967 L 539.0815163967986,3805.0837521634967 L 539.0815163967986,3805.0837521634967 L 539.0815163967986,3805.0837521634967 L 538.8206375081223,3804.0780767823235 L 538.1500659713995,3802.960336271845 L 536.9206241794373,3802.0659983243327 L 535.3931910209117,3802.10311080222 L 534.4617405955127,3802.6619810574593 L 534.2008617068365,3803.705496612164 L 534.2008617068365,3805.382107377882 L 534.7597319620759,3806.462371562652 L 535.8028836689583,3806.909540536408 L 537.9637758863197,3806.8349517328115 L 540.3855469923574,3805.7918000259288 L 541.7641663915125,3804.4506569524833 L 542.360149124639,3803.630907808568 L 542.6956168169115,3803.109150031215 L 542.9564957055877,3802.6619810574593 L 543.1427857906675,3802.2151759315257 L 543.291599550038,3801.879708239253 L 543.3661883536344,3801.6188293505766 L 543.5153659608272,3801.693418154173 L 544.1859374975501,3803.7426090900512 L 545.0802754450622,3807.2821207065676 L 546.3097172370244,3810.672454715891 L 547.6883366361797,3814.0631525730373 L 549.1786573168181,3817.1554952157976 L 550.3335103051841,3819.9498464919952 L 550.8923805604235,3822.930487853272 L 550.9294930383105,3825.7248391294693 L 550.6315016717473,3828.146610235507 L 550.2218090237006,3828.9288830537134 L 549.9238176571374,3828.9663593794226 L 549.2528822725922,3828.5563028835536 L 548.0609168063393,3827.401449895188 L 546.8685874922639,3825.7619516073564 L 546.0117258704612,3823.3401805013186 L 545.750846981785,3820.583305550831 L 546.198015955541,3817.788954274634 L 547.2782801403106,3814.7337241097603 L 548.9923672317383,3811.492203859807 L 551.227848252696,3808.5861513021264 L 553.7613206402171,3806.0152025888956 L 556.3693818313346,3804.0780767823235 L 558.7536766116627,3802.6994573831685 L 560.6540537881704,3801.7680069577696 L 561.8463831022457,3801.1716603768205 L 562.3306645538887,3800.911145335967 L 562.5915434425649,3800.799080206661 L 562.7778335276447,3800.761967728774 L 562.9266472870152,3800.8736690102573 L 563.0012360906115,3801.1716603768205 L 563.112937372095,3802.848271142539 L 563.2992274571748,3805.0837521634967 L 563.7463964309308,3807.4684107916473 L 564.3798554897667,3808.8470301908023 L 564.9758382228931,3809.3313116424456 L 565.6464097596161,3809.5547142054124 L 566.3915700999353,3809.5176017275253 L 567.3976093289307,3809.145021557366 L 569.4096877869217,3807.5055232695345 L 570.7137183824805,3805.158340967093 L 570.9745972711567,3803.519206527084 L 570.5645407752877,3802.5502797759755 L 569.8193804349684,3801.6188293505766 L 568.4782373615227,3800.5010888400975 L 566.8387390736913,3799.7559284997783 L 565.6838860853254,3799.4950496111023 L 564.8270244635228,3799.457937133215 L 564.3052666861703,3799.532525936812 L 563.8209852345273,3799.681339696182 L 563.4855175422546,3799.9051061069713 L 563.3367037828842,3800.1659849956477 L 563.7463964309308,3800.5756776436942 L 566.2798688184519,3800.83655653237 L 569.707679153485,3800.4265000365012 L 573.5451821365647,3799.9796949105676 L 577.4572739232409,3799.4950496111023 L 580.7359066510811,3798.8244780743794 L 583.2697428864246,3798.1167940597697 L 585.1697562151097,3797.483335000934 L 586.1012066405088,3797.1478673086613 L 586.362085529185,3797.110754830774 L 586.548375614265,3797.1853436343704 L 586.5854880921518,3797.37163371945 L 586.3991980070721,3797.8930276489805 L 585.430635103786,3799.2345345702483 L 584.1637169861143,3800.6502664472905 L 583.4931454493914,3801.2837255061263 L 583.1576777571188,3801.58171687269 L 582.897162716265,3801.8051194356567 L 582.7108726311851,3801.9914095207364 L 582.7108726311851,3802.0288858464455 L 583.2322665607152,3801.6188293505766 L 584.5362971562739,3800.4265000365012 L 585.8032152739456,3799.159945766652 L 586.5108992885555,3798.3030841448494 L 586.809254502941,3797.8184388453838 L 586.9209557844246,3797.37163371945 L 586.9580682623115,3796.886988419985 L 586.8463669808281,3796.4027069683416 L 586.5854880921518,3795.993014320295 L 586.2129079219922,3795.732135431619 L 585.7657389482362,3795.695022953732 L 585.1326437372228,3795.955537994586 L 584.4991846783869,3796.514408249825 L 583.9403144231475,3797.334157393741 L 583.6794355344712,3798.3773091006233 L 583.7165480123582,3799.830517303375 L 583.7165480123582,3799.830517303375" stroke="#DC2626" stroke-width="2" opacity="0.9"/>
  </g>
  <g id="stroke-group-hhu4fdqzu6-42" data-anchor-line="118" data-timestamp="2026-04-22T06:37:59Z">
    <path d="M 606.183423351242,3790.851480741657 L 606.183423351242,3790.851480741657 L 606.183423351242,3790.851480741657 L 606.183423351242,3790.851480741657 L 606.183423351242,3790.851480741657 L 602.9790155791758,3789.770852709065 L 599.8120841328188,3789.770852709065 L 596.608040208575,3790.2926104864173 L 594.2608579061338,3792.1555113372156 L 592.6213596183023,3794.4281048360604 L 591.6899091929033,3796.514408249825 L 591.2802165448568,3798.2284953412527 L 591.5036191078235,3799.159945766652 L 592.1370781666594,3799.830517303375 L 593.9999790174575,3800.2776862771307 L 596.7943302936548,3799.7559284997783 L 599.5512052441427,3797.9305039746896 L 601.63787250573,3795.6575466280224 L 603.0536043827722,3793.0869617626145 L 603.7616522452045,3790.366835442191 L 604.1713448932511,3787.6845492953 L 604.0967560896546,3784.778132889797 L 603.6495871158986,3781.9466691357125 L 603.0536043827722,3778.8168501672426 L 602.4576216496456,3775.5011049615155 L 601.861275068697,3772.296697189449 L 601.4141060949407,3770.247506253571 L 601.1907035319739,3769.726112324041 L 601.1161147283776,3769.576934716848 L 601.0044134468942,3769.8378136055244 L 600.6689457546215,3772.706753685318 L 600.706422080331,3777.028538120041 L 601.1535910540871,3781.834967854229 L 601.9358638722932,3787.4607828845105 L 602.9044267755794,3793.6083556921444 L 603.7987647230915,3798.936179355863 L 604.6185138670071,3803.9660116530176 L 604.6185138670071,3803.9660116530176" stroke="#DC2626" stroke-width="2" opacity="0.9"/>
  </g>
  <g id="stroke-group-hhu4fdqzu6-43" data-anchor-line="120" data-timestamp="2026-04-22T06:37:59Z">
    <path d="M 574.73751145064,3855.568365220127 L 574.73751145064,3855.568365220127 L 574.73751145064,3855.568365220127 L 574.6629226470436,3855.1957850499675 L 574.5141088876732,3854.8606812055173 L 574.5141088876732,3854.7486160762114 L 574.5512213655602,3854.7115035983243 L 575.3334941837664,3855.456663938644 L 576.339533412762,3856.4252268419295 L 577.4947502489503,3857.766733763198 L 579.320174774039,3861.7159380277612 L 579.9907463107619,3864.1005966559114 L 580.5870928917107,3867.3046405801556 L 581.1830756248372,3872.222771595827 L 581.3322532320301,3874.2348500538183 L 581.6302445985933,3875.9485732974235 L 582.0774135723493,3878.519522010654 L 582.1891148538327,3879.562673717536 L 582.4499937425089,3880.2703577321463 L 582.6733963054758,3880.7175267059024 L 582.7108726311851,3880.829227987386 L 582.7479851090721,3880.903816790982 L 582.7850975869592,3880.9412931166917 L 582.7850975869592,3880.829227987386 L 582.7108726311851,3880.4941241429356 L 582.2262273317197,3878.5937469664277 L 581.85364716156,3877.476006455949 L 581.3322532320301,3876.02316210102 L 580.400802806631,3872.856230654663 L 579.9907463107619,3871.1050310853484 L 579.5439411848282,3869.1304289530667 L 578.6867157152031,3864.249410415282 L 578.3141355450435,3861.7534143534704 L 578.0907329820767,3859.1078768366438 L 577.7552652898041,3854.8977936834044 L 577.6435640083206,3853.1465941140896 L 577.7552652898041,3850.985701896728 L 577.7181528119171,3849.12280104593 L 577.5689752047243,3846.850207547085 L 577.4947502489503,3845.2107092592537 L 577.6810403340302,3843.422397212052 L 578.4262006743494,3841.0377385839015 L 579.0221834074758,3839.957474399132 L 579.9536338328749,3839.137725255216 L 581.816534683673,3838.057097222624 L 582.7108726311851,3837.9082834632536 L 584.0149032267439,3837.759105856061 L 586.6971893736354,3838.392564914897 L 588.0758087727904,3839.0260239737327 L 589.9015971457017,3840.255465765695 L 593.180229873542,3843.422397212052 L 594.6334380762934,3845.247821737141 L 596.1237587569319,3847.6324803652915 L 598.1354733671005,3851.88003984424 L 598.8435212295328,3853.5566506099585 L 599.4395039626593,3855.9038329123996 L 600.0729630214951,3860.1885048692357 L 600.2592531065749,3861.902228112841 L 600.4084307137678,3863.8026052893483 L 600.5201319952511,3867.0812380171888 L 600.5572444731382,3868.2360910055545 L 600.5201319952511,3869.391307841743 L 600.5201319952511,3869.912701771273 L 600.5201319952511,3869.912701771273" stroke="#DC2626" stroke-width="2" opacity="0.9"/>
  </g>
  <g id="stroke-group-hhu4fdqzu6-44" data-anchor-line="120" data-timestamp="2026-04-22T06:38:00Z">
    <path d="M 582.934275194152,3860.0393272620427 L 582.934275194152,3860.0393272620427 L 582.934275194152,3860.0393272620427 L 582.934275194152,3860.0393272620427 L 582.934275194152,3860.0393272620427 L 584.8342885228371,3858.3627164963245 L 586.8834794587151,3856.7606945342022 L 589.6778307349124,3855.1586725720804 L 594.5959617505839,3853.742940695038 L 596.6451526864621,3853.370360524879 L 598.8060449038234,3853.1094816362024 L 602.1967427609695,3852.6252001845596 L 603.3890720750447,3852.364321295883 L 604.6931026706035,3852.103442407207 L 606.5560035214016,3851.7308622370474 L 607.2636875360115,3851.3953945447747 L 607.5991552282842,3851.321169589001 L 608.0088478763308,3851.209104459695 L 608.1580254835236,3851.134879503921 L 608.3068392428941,3851.0974031782116 L 608.4931293279737,3851.0228143746153 L 608.5677181315704,3851.0228143746153 L 608.6423069351666,3851.0602907003245 L 608.6794194130537,3851.3582820668876 L 608.6423069351666,3851.917152322127 L 608.6051944572796,3853.1465941140896 L 608.9031858238429,3856.3510018861557 L 609.2382896682931,3857.9155475225684 L 609.5737573605658,3859.853037176963 L 610.5797965895612,3863.6905401600425 L 610.9894892376079,3865.2929259699868 L 611.6229482964437,3867.379229383752 L 612.5172862439559,3870.6578621115923 L 612.815277610519,3871.924780229264 L 613.0015676955989,3873.2288108248226 L 613.4112603436455,3875.091711675621 L 613.5604379508384,3875.762283212344 L 613.5604379508384,3875.9856857753107 L 613.5975504287253,3876.2094521861 L 613.5604379508384,3876.2465646639866 L 613.5604379508384,3876.2465646639866" stroke="#DC2626" stroke-width="2" opacity="0.9"/>
  </g>
  <g id="stroke-group-hhu4fdqzu6-45" data-anchor-line="121" data-timestamp="2026-04-22T06:38:00Z">
    <path d="M 609.3128784718895,3870.322758267142 L 608.5677181315704,3867.416341861639 L 608.1205491578143,3864.5848781075547 L 607.5616789025747,3861.194544098231 L 607.0028086473353,3856.2764130825594 L 606.7794060843685,3854.189745820972 L 606.5560035214016,3851.656273433451 L 606.667704802885,3846.626441136296 L 606.9656961694483,3844.6147265261275 L 607.2636875360115,3842.304656701573 L 608.5306056536832,3839.6220067068593 L 609.3128784718895,3838.7651450850567 L 610.2818052229981,3837.9082834632536 L 612.4798099182465,3836.7159541491787 L 613.7467280359182,3836.417962782615 L 615.4979276052329,3836.2687851754226 L 618.1431012742373,3836.4921877383895 L 619.2608417847161,3836.753066627066 L 620.5648723802749,3837.274824404418 L 622.2043706681063,3838.802257562944 L 622.6886521197493,3839.6220067068593 L 622.9866434863126,3841.0006261060144 L 622.8378297269421,3844.577250200418 L 622.4652495567826,3846.3284497697327 L 621.8317904979466,3848.489341987094 L 620.1551797322284,3851.7308622370474 L 619.410019391909,3852.9603040290094 L 618.1802137521244,3854.4506247096483 L 616.0939103383594,3856.7606945342022 L 615.1253474350733,3857.617556156005 L 614.0076069245944,3858.474417777808 L 612.5172862439559,3859.629634613996 L 612.1818185516831,3859.853037176963 L 612.0701172701997,3859.9276259805592 L 611.9955284666033,3859.9647384584464 L 611.9955284666033,3859.8905135026725 L 612.0701172701997,3859.7413358954796 L 612.0701172701997,3859.7413358954796" stroke="#DC2626" stroke-width="2" opacity="0.9"/>
  </g>
  <g id="stroke-group-hhu4fdqzu6-46" data-anchor-line="120" data-timestamp="2026-04-22T06:38:00Z">
    <path d="M 625.8555835661061,3843.3849208863426 L 625.8555835661061,3843.3849208863426 L 626.6753327100218,3845.2107092592537 L 628.7616361237868,3851.0228143746153 L 629.3950951826228,3852.7740139439297 L 630.0285542414586,3855.7921316309166 L 630.140255522942,3857.170387182249 L 630.4011344116183,3858.698184188597 L 630.177368000829,3861.380834183311 L 630.2519568044254,3862.386509564484 L 630.5128356931016,3863.131669904803 L 630.6991257781815,3863.653427682156 L 630.6991257781815,3863.728016485752 L 630.7362382560684,3863.728016485752 L 630.7362382560684,3863.6905401600425 L 630.7362382560684,3863.6905401600425" stroke="#DC2626" stroke-width="2" opacity="0.9"/>
  </g>
  <g id="stroke-group-hhu4fdqzu6-47" data-anchor-line="120" data-timestamp="2026-04-22T06:38:00Z">
    <path d="M 627.3459042467447,3854.115520865198 L 626.1535749326695,3849.1599135238166 L 625.5947046774301,3847.1481989136482 L 625.0358344221904,3844.279258833855 L 624.5886654484344,3840.628045935855 L 624.6261417741439,3839.2865390145867 L 624.7007305777403,3837.759105856061 L 625.5201158738336,3835.56073731299 L 626.004761173299,3834.666763213301 L 626.7499215136183,3833.9587153508683 L 628.6499348423034,3832.840974840389 L 629.7676753527825,3832.6175722774224 L 631.071705948341,3832.4312821923427 L 633.7914684209419,3832.4312821923427 L 635.170087820097,3832.5800959517132 L 636.6975209786226,3833.362732617742 L 639.1567684103695,3834.778464494784 L 640.0136300321723,3835.5236248351034 L 640.9450804575714,3836.5667765419857 L 641.6156519942941,3838.3179761113006 L 641.4293619092144,3839.3986041438925 L 640.9450804575714,3840.888924824531 L 638.9704783252898,3844.390960115338 L 637.7781490112144,3846.030458403169 L 636.1386507233832,3848.191350620531 L 632.3011477403035,3851.134879503921 L 630.4382468895053,3852.3268449701736 L 628.3890559536273,3853.407473002766 L 625.6692934810264,3855.1211962463713 L 624.8124318592237,3855.71754282732 L 624.2160852782749,3856.015534193883 L 623.8063926302282,3856.23893675685 L 623.7692801523411,3856.23893675685 L 623.7692801523411,3856.23893675685" stroke="#DC2626" stroke-width="2" opacity="0.9"/>
  </g>
  <g id="stroke-group-hhu4fdqzu6-48" data-anchor-line="120" data-timestamp="2026-04-22T06:38:01Z">
    <path d="M 637.4801576446513,3848.2284630984177 L 637.4801576446513,3848.2284630984177 L 637.4801576446513,3848.2284630984177 L 637.4801576446513,3848.2284630984177 L 637.4801576446513,3848.2284630984177 L 638.7467119145006,3846.403038573329 L 639.8644524249794,3844.875241566981 L 641.2430718241346,3843.3106959305687 L 643.2922627600126,3840.516344654371 L 643.9628342967354,3839.6220067068593 L 644.7079946370548,3838.7651450850567 L 645.4906313030834,3837.311936882305 L 645.7140338660502,3836.6042528676953 L 646.0120252326134,3835.7845037237794 L 646.1983153176933,3834.1824817616575 L 646.1240903619192,3833.2510313362586 L 645.9378002768394,3832.5058709959394 L 645.2297524144071,3830.7175589487374 L 644.8571722442475,3830.2703899749813 L 644.484592074088,3829.748632197629 L 644.0374231003318,3829.301463223873 L 643.8886093409615,3829.227238268099 L 643.7394317337686,3829.1526494645027 L 643.4414403672054,3829.115173138793 L 643.2922627600126,3829.1526494645027 L 643.1434490006421,3829.301463223873 L 642.882570111966,3830.046623564192 L 642.8079813083696,3830.7917839045112 L 642.919682589853,3831.4252429633475 L 644.0374231003318,3832.8038623625025 L 645.0434623293274,3833.3998450956287 L 646.6083718135623,3833.7724252657886 L 649.3652467640501,3833.884126547272 L 650.7813424889147,3834.0333041544645 L 652.3087756474403,3833.7353127879014 L 654.4325553869147,3832.990152447582 L 655.1777157272338,3832.8038623625025 L 655.6991096567639,3832.6546847553095 L 656.0716898269236,3832.542983473826 L 656.2208674341164,3832.542983473826 L 656.3700450413093,3832.5058709959394 L 656.6680364078724,3832.542983473826 L 656.7797376893558,3832.6175722774224 L 656.8543264929523,3832.766386036793 L 656.9289152965487,3833.2510313362586 L 656.8543264929523,3833.697836462192 L 656.6680364078724,3834.629286887591 L 655.8111747860697,3836.827655430662 L 655.3640058123137,3837.6474045745776 L 655.1031269236374,3838.1687985041076 L 654.8797243606707,3838.69055628146 L 654.8422480349612,3838.87684636654 L 654.8422480349612,3839.06313645162 L 654.9168368385575,3839.361127818183 L 655.0285381200409,3839.4728290996663 L 655.2148282051209,3839.5474179032626 L 656.2208674341164,3839.3986041438925 L 657.2640191409988,3838.9885476480235 L 658.3817596514779,3838.429677392784 L 660.1700716986795,3837.2373480787087 L 660.691829476032,3836.678477823469 L 661.138998449788,3836.045382612456 L 661.8466824643979,3834.368771846737 L 662.0329725494777,3833.3252562920325 L 662.1450376787835,3832.2075157815534 L 662.1075613530741,3830.0840998899016 L 661.9958600715906,3829.450640831066 L 661.8095699865108,3829.0409481830193 L 661.5486910978346,3828.6308916871503 L 661.3998773384642,3828.5563028835536 L 661.2506997312714,3828.5191904056664 L 660.9152320389989,3828.593779209263 L 660.5801281945486,3828.8917705758263 L 660.1700716986795,3829.450640831066 L 659.3132100768769,3831.797823133507 L 659.126919991797,3833.064741251179 L 659.0523311882006,3834.2567067174314 L 659.2015087953934,3836.380486456906 L 659.3506864025862,3837.088534319338 L 659.5369764876659,3837.6474045745776 L 660.0958467429056,3838.2433873077043 L 660.5426518688391,3838.5042661963803 L 661.2878122091583,3838.727668759347 L 663.7470596409054,3838.7651450850567 L 665.2373803215439,3838.3179761113006 L 666.7277010021825,3837.759105856061 L 668.7394156123511,3836.3058976533093 L 669.3357621933,3835.5982136386997 L 670.0063337300228,3834.5550619318174 L 670.0809225336192,3832.692161081019 L 669.782931167056,3831.7607106556197 L 669.4103509968963,3830.5683813415444 L 667.9571427941448,3828.6308916871503 L 667.286571257422,3827.9232076725402 L 666.3176445063134,3827.1034585286243 L 665.1256790400605,3826.060306821742 L 664.7530988699009,3825.9111292145494 L 664.4176311776282,3825.7248391294693 L 663.9704622038722,3825.5756615222767 L 663.8216484445018,3825.5756615222767 L 663.7095833151961,3825.5756615222767 L 663.5978820337127,3825.650250325873 L 663.5978820337127,3825.7248391294693 L 663.672470837309,3825.8365404109527 L 663.672470837309,3825.8365404109527" stroke="#DC2626" stroke-width="2" opacity="0.9"/>
  </g>
  <g id="stroke-group-hhu4fdqzu6-49" data-anchor-line="119" data-timestamp="2026-04-22T06:38:01Z">
    <path d="M 668.3668354421914,3822.9676003311592 L 668.3668354421914,3822.9676003311592 L 668.3668354421914,3822.9676003311592 L 668.3668354421914,3822.9676003311592 L 668.3668354421914,3822.9676003311592 L 669.7083423634596,3824.8305011819575 L 670.7514940703421,3826.2091205811125 L 671.906347058708,3827.997432628314 L 673.6204341501357,3830.4566800600614 L 674.2164168832622,3831.4252429633475 L 674.8498759420979,3832.0958145000704 L 675.7067375639007,3832.4312821923427 L 676.1167940597697,3832.5800959517132 L 676.5264867078164,3832.5800959517132 L 677.5325259368118,3832.2075157815534 L 678.0168073884549,3831.8724119371036 L 678.5756776436943,3831.350654159751 L 679.7305306320602,3829.487753308953 L 680.1031108022199,3828.7425929686333 L 680.4756909723795,3827.699441261751 L 680.6619810574593,3825.8740167366623 L 680.5877561016854,3824.8305011819575 L 680.4385784944925,3823.8248258007843 L 679.8797082392531,3821.738158539197 L 679.6563056762863,3820.9184093952813 L 679.4325392654971,3820.210725380671 L 679.1345478989338,3819.167573673789 L 679.0228466174503,3818.6829283743236 L 678.948257813854,3818.347824529873 L 678.9111453359669,3817.86354307823 L 678.9111453359669,3817.639776667441 L 678.948257813854,3817.453486582361 L 679.1345478989338,3817.118382737911 L 679.2837255061266,3817.006317608605 L 679.6188293505768,3816.8946163271216 L 680.9974487497319,3816.8575038492345 L 682.0780767823239,3817.0437939343146 L 682.0780767823239,3817.0437939343146" stroke="#DC2626" stroke-width="2" opacity="0.9"/>
  </g>
  <g id="stroke-group-hhu4fdqzu6-50" data-anchor-line="119" data-timestamp="2026-04-22T06:38:02Z">
    <path d="M 683.3821073778827,3823.7873494750747 L 683.3821073778827,3823.7873494750747 L 683.3821073778827,3823.7873494750747 L 683.3821073778827,3823.7873494750747 L 685.3567095101643,3823.1167779383522 L 687.182134035253,3822.334505120146 L 690.4236542852062,3820.806708113798 L 691.6530960771685,3820.285314184268 L 692.7337241097605,3819.688967603319 L 693.9631659017227,3818.7949935036295 L 694.2986335939953,3818.459525811357 L 694.5220361569621,3818.1986469226804 L 694.7829150456383,3817.788954274634 L 694.857503849235,3817.5651878638446 L 694.9320926528312,3817.3417853008777 L 694.9692051307183,3816.8200275235254 L 694.9320926528312,3816.5595124826714 L 694.8946163271218,3816.298633593995 L 694.671213764155,3815.888577098126 L 694.2240447903989,3815.6280620572725 L 692.5845465025676,3815.814352142352 L 691.3179922327183,3816.298633593995 L 690.2373642001263,3816.969205130718 L 688.5607534344081,3818.4224133334696 L 688.039359504878,3819.055508544483 L 687.6667793347184,3819.6143787997225 L 687.182134035253,3820.6204180287177 L 687.0333202758825,3821.216764609667 L 687.0704327537695,3821.924448624277 L 687.6667793347184,3823.079665460465 L 688.523640956521,3823.601059389995 L 689.8647840299668,3824.011115885864 L 692.7337241097605,3824.1228171673474 L 694.1869323125119,3823.9365270822677 L 695.7889542746339,3823.563946912108 L 699.5147559762302,3822.334505120146 L 701.4522456306249,3821.738158539197 L 703.6877266515826,3821.030474524587 L 707.0034718573099,3819.688967603319 L 708.1586886934983,3819.0929848701926 L 709.5744205705403,3818.4966382892435 L 711.5490227028218,3817.1926076936847 L 712.0707804801744,3816.671213764155 L 712.517585606108,3816.1123435089153 L 712.9276421019771,3815.143416757807 L 712.964754579864,3814.7337241097603 L 712.964754579864,3814.3982564174876 L 712.8530532983806,3813.839386162248 L 712.7413520168972,3813.5788711213945 L 712.5921744097043,3813.3551047106052 L 711.9587153508686,3812.9825245404454 L 711.3256201398551,3812.870823258962 L 710.431282192343,3812.907935736849 L 708.3075024528686,3813.7276848807646 L 707.2272382680992,3814.5103215467934 L 706.2583115169906,3815.3297068428865 L 704.767990836352,3817.0437939343146 L 704.3954106661924,3817.86354307823 L 704.1720081032256,3818.534114614953 L 704.2091205811126,3819.204686151676 L 704.3582981883055,3819.5772663218354 L 704.6191770769817,3819.986958969882 L 705.9974326283143,3820.9184093952813 L 706.8546580979395,3821.1792882839572 L 707.9723986084184,3821.253877087554 L 709.984113218587,3820.881296917394 L 710.8409748403897,3820.583305550831 L 711.5861351807089,3820.173249054962 L 712.8901657762676,3818.9812835887087 L 713.5611011608129,3818.23612324839 L 714.1570838939393,3817.3046728229906 L 715.0139455157421,3815.143416757807 L 715.2002356008219,3813.839386162248 L 715.2748244044183,3812.3490654816096 L 715.0139455157421,3808.8470301908023 L 714.7905429527751,3806.909540536408 L 714.6042528676954,3804.934938404126 L 714.1570838939393,3801.1716603768205 L 713.9336813309726,3799.457937133215 L 713.7473912458927,3797.706737563901 L 713.3373347500237,3794.3535160324636 L 712.9276421019771,3791.969221252136 L 712.7413520168972,3791.3357621932996 L 712.7038756911879,3791.224060911816 L 712.6296507354139,3791.5591647562665 L 712.6667632133009,3794.9869750912994 L 713.2627459464273,3800.053919866342 L 714.3433739790191,3806.5369603662484 L 715.7591058560613,3813.8022736843614 L 717.2123140588129,3820.3595391400418 L 718.0691756806154,3827.7740300653477 L 718.0691756806154,3827.7740300653477" stroke="#DC2626" stroke-width="2" opacity="0.9"/>
  </g>
</svg>
